#!OML:ASF E:\Style6\Style6.ASF
:FULLY-SPECIFIED
:DEGREES
2837
root 0.547387 17.6022 0.862915 15.8726 -1.78774 -0.756423
lowerback 9.74109 -0.561432 3.44636
upperback -7.21487 0.0294375 2.0622
thorax -13.4268 -0.183313 0.330047
lowerneck -6.71938 0.74051 2.38271
upperneck 18.6698 2.06564 -7.49501
head 6.88664 0.538483 -2.65788
rclavicle -1.05853e-014 -9.54166e-015
rhumerus -21.5144 -34.7562 14.5063
rradius 61.2923
rwrist -11.5698
rhand 18.6364 3.88983
rfingers 7.12502
rthumb 43.2627 -20.2626
lclavicle -1.05853e-014 -9.54166e-015
lhumerus -31.6595 40.5735 -6.60008
lradius 66.6472
lwrist 11.3479
lhand 14.4528 23.91
lfingers 7.12502
lthumb 39.3363 49.3329
rfemur -33.1847 -0.15239 18.8409
rtibia 37.6174
rfoot -13.3692 -12.2867
rtoes -9.32536
lfemur -30.2895 -2.3309 -17.8716
ltibia 37.3715
lfoot -13.4431 12.9225
ltoes -25.3992
2838
root 0.547648 17.6017 0.862593 15.8501 -1.73946 -0.840486
lowerback 9.76235 -0.564388 3.55653
upperback -7.23657 0.0480337 2.08761
thorax -13.4666 -0.183725 0.293211
lowerneck -6.58957 0.735259 2.37637
upperneck 18.6087 2.06345 -7.53466
head 6.84398 0.537528 -2.66898
rclavicle -6.60959e-015 -4.77083e-015
rhumerus -21.3694 -34.7695 14.6396
rradius 61.296
rwrist -11.5053
rhand 18.5958 4.10384
rfingers 7.12502
rthumb 43.2248 -20.0622
lclavicle -6.60959e-015 -4.77083e-015
lhumerus -31.3873 40.5685 -6.55362
lradius 66.7767
lwrist 11.5199
lhand 13.733 23.9222
lfingers 7.12502
lthumb 38.6578 49.5394
rfemur -33.1553 -0.183358 18.9473
rtibia 37.6302
rfoot -13.3696 -12.2453
rtoes -9.12284
lfemur -30.3093 -2.29806 -17.7781
ltibia 37.4484
lfoot -13.4876 12.9067
ltoes -25.2559
2839
root 0.547636 17.5997 0.862542 15.8418 -1.73122 -0.88639
lowerback 9.75866 -0.551341 3.60625
upperback -7.26001 0.0769548 2.10851
thorax -13.4918 -0.173831 0.282811
lowerneck -6.493 0.728806 2.30696
upperneck 18.5791 2.05336 -7.48439
head 6.81585 0.534523 -2.64118
rclavicle -1.59028e-015 -1.59028e-015
rhumerus -21.1722 -34.7158 14.7541
rradius 61.3045
rwrist -11.6049
rhand 18.3626 4.07839
rfingers 7.12502
rthumb 43.0068 -20.1652
lclavicle -1.59028e-015 -1.59028e-015
lhumerus -31.1236 40.5483 -6.49853
lradius 66.8223
lwrist 11.7816
lhand 13.4551 23.974
lfingers 7.12502
lthumb 38.3955 49.6645
rfemur -33.1576 -0.19522 19.0025
rtibia 37.6561
rfoot -13.3638 -12.2309
rtoes -9.06837
lfemur -30.3381 -2.26276 -17.7283
ltibia 37.5147
lfoot -13.5178 12.8977
ltoes -25.4129
2840
root 0.547496 17.597 0.861661 15.8522 -1.71809 -0.910749
lowerback 9.72998 -0.560067 3.59987
upperback -7.23935 0.0638586 2.12689
thorax -13.4499 -0.177779 0.308568
lowerneck -6.57159 0.73748 2.30062
upperneck 18.599 2.06121 -7.45231
head 6.83639 0.538511 -2.62934
rclavicle -1.25731e-014 -7.95139e-015
rhumerus -20.9572 -34.8481 14.7606
rradius 61.3617
rwrist -11.6159
rhand 18.1739 4.08264
rfingers 7.12502
rthumb 42.8303 -20.223
lclavicle -1.25731e-014 -7.95139e-015
lhumerus -30.9588 40.6172 -6.56302
lradius 66.8302
lwrist 12.0525
lhand 13.5283 23.9929
lfingers 7.12502
lthumb 38.4646 49.6642
rfemur -33.1897 -0.243336 19.0521
rtibia 37.6852
rfoot -13.2776 -12.2868
rtoes -9.65784
lfemur -30.3893 -2.2213 -17.705
ltibia 37.59
lfoot -13.566 12.8693
ltoes -25.4728
2841
root 0.54796 17.5948 0.860822 15.8583 -1.70229 -0.906662
lowerback 9.72515 -0.584645 3.58517
upperback -7.22157 0.0277005 2.13185
thorax -13.4267 -0.192855 0.329448
lowerneck -6.67542 0.755498 2.25961
upperneck 18.6192 2.08157 -7.39291
head 6.86183 0.547809 -2.60175
rclavicle 8.69683e-015 3.18055e-015
rhumerus -20.6983 -35.0874 14.7036
rradius 61.4245
rwrist -11.4966
rhand 18.1198 4.03187
rfingers 7.12502
rthumb 42.7797 -20.2915
lclavicle 8.69683e-015 3.18055e-015
lhumerus -30.815 40.7152 -6.66923
lradius 66.8726
lwrist 12.1727
lhand 13.1819 23.7225
lfingers 7.12502
lthumb 38.1376 49.4842
rfemur -33.233 -0.343706 19.0748
rtibia 37.7328
rfoot -13.1642 -12.296
rtoes -10.6118
lfemur -30.421 -2.20702 -17.712
ltibia 37.6481
lfoot -13.6321 12.835
ltoes -25.4373
2842
root 0.548463 17.5934 0.860753 15.8709 -1.69699 -0.943798
lowerback 9.74038 -0.566394 3.62976
upperback -7.26192 0.0633755 2.14256
thorax -13.4834 -0.180293 0.30995
lowerneck -6.63351 0.740603 2.17439
upperneck 18.6208 2.0591 -7.31702
head 6.85251 0.538193 -2.56439
rclavicle -6.41081e-015 2.22639e-014
rhumerus -20.5341 -35.1761 14.8036
rradius 61.4654
rwrist -11.4454
rhand 18.053 4.09868
rfingers 7.12502
rthumb 42.7172 -20.2464
lclavicle -6.41081e-015 2.22639e-014
lhumerus -30.537 40.6922 -6.59933
lradius 66.9468
lwrist 12.2753
lhand 12.8324 23.501
lfingers 7.12502
lthumb 37.8075 49.3523
rfemur -33.2728 -0.404733 19.1265
rtibia 37.7723
rfoot -13.138 -12.232
rtoes -10.8564
lfemur -30.4622 -2.16973 -17.6734
ltibia 37.7044
lfoot -13.714 12.7314
ltoes -25.1014
2843
root 0.549496 17.5918 0.860852 15.8469 -1.70331 -0.90732
lowerback 9.70963 -0.551528 3.59343
upperback -7.2488 0.0760517 2.14628
thorax -13.4481 -0.170279 0.330959
lowerneck -6.57374 0.733668 2.13505
upperneck 18.5732 2.05273 -7.31933
head 6.826 0.534353 -2.55832
rclavicle -4.96962e-015 -1.59028e-015
rhumerus -20.3511 -35.3196 14.9223
rradius 61.4437
rwrist -11.426
rhand 18.039 4.24941
rfingers 7.12502
rthumb 42.7041 -20.1003
lclavicle -4.96962e-015 -1.59028e-015
lhumerus -30.3008 40.7043 -6.54087
lradius 67.0226
lwrist 12.4782
lhand 12.6046 23.5416
lfingers 7.12502
lthumb 37.5923 49.4506
rfemur -33.2674 -0.422623 19.0833
rtibia 37.8069
rfoot -13.148 -12.2061
rtoes -10.9858
lfemur -30.4528 -2.1752 -17.7245
ltibia 37.7378
lfoot -13.6973 12.7737
ltoes -25.179
2844
root 0.550508 17.5908 0.860846 15.8577 -1.69574 -0.905759
lowerback 9.53383 -0.547445 3.59108
upperback -7.15056 0.0672292 2.14403
thorax -13.2232 -0.171783 0.32685
lowerneck -6.63929 0.739451 2.14772
upperneck 18.4892 2.05348 -7.31695
head 6.81083 0.536108 -2.55847
rclavicle -2.25124e-014 1.27222e-014
rhumerus -20.1512 -35.6191 14.986
rradius 61.368
rwrist -11.4135
rhand 17.995 4.39229
rfingers 7.12502
rthumb 42.6629 -19.9717
lclavicle -2.25124e-014 1.27222e-014
lhumerus -30.0362 40.9677 -6.52727
lradius 67.0202
lwrist 12.629
lhand 12.3028 23.6383
lfingers 7.12502
lthumb 37.3071 49.6228
rfemur -33.2876 -0.418865 19.0767
rtibia 37.824
rfoot -13.1368 -12.2367
rtoes -11.0587
lfemur -30.4921 -2.1665 -17.7259
ltibia 37.7694
lfoot -13.6896 12.776
ltoes -25.26
2845
root 0.551001 17.5915 0.861144 15.8335 -1.69274 -0.904611
lowerback 9.46792 -0.555963 3.57576
upperback -7.0946 0.0488176 2.15628
thorax -13.117 -0.177068 0.350482
lowerneck -6.61321 0.752899 2.18088
upperneck 18.3533 2.06972 -7.37376
head 6.76418 0.54462 -2.57942
rclavicle -4.47266e-016 1.11319e-014
rhumerus -19.8949 -35.7914 15.0081
rradius 61.3642
rwrist -11.3237
rhand 17.8951 4.45273
rfingers 7.12502
rthumb 42.5694 -19.9436
lclavicle -4.47266e-016 1.11319e-014
lhumerus -29.8667 41.0826 -6.58036
lradius 67.0359
lwrist 12.8598
lhand 12.1103 23.5856
lfingers 7.12502
lthumb 37.125 49.6177
rfemur -33.2777 -0.471337 19.0826
rtibia 37.8535
rfoot -13.161 -12.1706
rtoes -10.8609
lfemur -30.4918 -2.11885 -17.729
ltibia 37.7899
lfoot -13.7609 12.6599
ltoes -24.9336
